<?xml version="1.0" standalone="no"?>
<!DOCTYPE svg PUBLIC "-//W3C//DTD SVG 20010904//EN"
 "http://www.w3.org/TR/2001/REC-SVG-20010904/DTD/svg10.dtd">
<svg version="1.0" xmlns="http://www.w3.org/2000/svg"
 width="1024.000000pt" height="1024.000000pt" viewBox="0 0 1024.000000 1024.000000"
 preserveAspectRatio="xMidYMid meet">

<g transform="translate(0.000000,1024.000000) scale(0.100000,-0.100000)"
fill="#000000" stroke="none">
<path d="M4075 6724 c-90 -22 -211 -85 -510 -265 -157 -95 -279 -162 -292
-161 -46 4 -792 173 -1299 296 -78 18 -152 32 -166 29 -27 -5 -258 -178 -258
-194 0 -23 28 -39 515 -289 143 -73 315 -161 382 -196 l121 -63 -261 -141
c-143 -77 -266 -140 -273 -140 -6 0 -117 52 -245 115 -129 63 -245 115 -258
115 -23 0 -233 -109 -260 -135 -12 -12 -12 -17 2 -38 23 -35 196 -224 262
-286 32 -30 54 -56 49 -58 -33 -12 -168 -90 -171 -99 -4 -12 164 -115 262
-161 87 -40 138 -37 309 21 213 72 628 239 925 372 30 13 56 22 59 19 3 -2
-14 -98 -36 -212 -97 -491 -152 -797 -147 -811 4 -11 16 -13 53 -9 57 7 267
73 299 94 31 21 160 278 237 476 55 138 185 500 273 755 29 85 27 83 238 213
344 211 442 294 512 435 45 93 52 146 25 207 -25 56 -79 94 -159 113 -72 17
-111 16 -188 -2z m196 -14 c89 -25 149 -94 149 -171 0 -85 -78 -222 -177 -309
-53 -47 -228 -164 -425 -284 -70 -42 -136 -88 -146 -100 -10 -13 -49 -111 -86
-217 -202 -573 -269 -746 -373 -954 -49 -98 -79 -134 -128 -155 -47 -20 -250
-80 -271 -80 -21 0 -18 25 26 255 22 116 54 282 71 370 17 88 43 222 59 298
18 89 24 137 17 134 -7 -3 -113 -49 -237 -102 -482 -207 -835 -339 -939 -352
-37 -4 -64 -1 -98 12 -66 25 -283 148 -277 157 3 4 45 28 94 53 l88 46 -112
112 c-143 142 -230 243 -223 259 3 7 60 42 128 77 l124 64 248 -122 c137 -66
251 -121 253 -121 4 0 327 172 493 262 l73 41 -283 144 c-445 226 -749 385
-749 393 0 11 63 66 150 130 78 57 88 62 125 57 22 -3 180 -39 350 -81 297
-72 1069 -246 1091 -246 6 0 82 43 170 96 412 250 507 302 604 328 65 17 160
20 211 6z"/>
<path d="M5235 5912 c-46 -9 -45 8 -45 -622 0 -328 3 -631 6 -674 l7 -76 41
-11 c49 -14 191 -6 211 11 13 11 15 106 15 680 0 522 -3 670 -12 678 -13 10
-186 21 -223 14z m204 -21 c22 -14 23 -1327 1 -1341 -16 -11 -189 -14 -214 -4
-14 6 -16 74 -16 673 0 367 3 671 7 674 10 10 206 8 222 -2z"/>
<path d="M7495 5912 c-46 -9 -45 0 -45 -692 0 -551 2 -659 14 -676 13 -17 27
-19 130 -19 71 0 119 4 126 11 8 8 11 78 10 220 0 114 1 206 4 203 2 -2 54
-89 114 -194 61 -104 119 -201 130 -215 19 -24 26 -25 138 -28 134 -4 162 5
151 50 -4 13 -66 123 -138 244 -72 120 -133 224 -136 231 -3 7 46 81 107 165
62 84 126 177 142 206 17 29 32 52 33 50 1 -2 52 -151 113 -333 60 -181 131
-388 157 -460 42 -116 46 -133 36 -165 -28 -94 -94 -150 -177 -150 -42 0 -55
-4 -63 -19 -17 -31 -25 -155 -12 -179 16 -30 82 -45 169 -39 174 13 279 120
370 377 75 215 285 919 286 960 l1 45 -111 3 c-94 2 -114 0 -133 -15 -17 -14
-33 -62 -70 -208 -80 -315 -105 -405 -110 -405 -3 0 -43 134 -89 298 -64 230
-87 301 -104 315 -20 16 -36 18 -138 13 -63 -2 -119 -4 -125 -4 -5 0 -73 1
-150 2 l-140 1 -117 -174 c-64 -96 -122 -179 -129 -185 -8 -8 -10 82 -7 367 3
265 2 380 -6 386 -12 9 -197 20 -231 13z m225 -419 l5 -402 138 204 138 205
117 0 c133 0 150 -6 132 -41 -18 -34 -131 -197 -212 -305 -37 -50 -68 -93 -68
-96 0 -4 60 -107 133 -230 152 -255 163 -276 144 -284 -7 -2 -67 -3 -132 -2
l-119 3 -50 85 c-27 47 -89 152 -138 235 l-88 150 0 -226 c0 -182 -3 -229 -14
-238 -9 -8 -51 -11 -122 -9 l-109 3 -3 665 c-1 366 0 671 3 678 3 9 34 12 122
10 l118 -3 5 -402z m811 -10 c10 -10 123 -393 174 -591 10 -39 22 -69 26 -65
8 9 71 235 134 483 48 192 46 190 165 190 84 0 120 -7 120 -23 0 -16 -213
-716 -271 -889 -115 -346 -210 -448 -420 -448 -111 0 -119 6 -118 83 1 34 4
75 8 91 6 27 9 29 63 31 93 5 137 40 178 146 l21 52 -51 140 c-54 146 -230
666 -255 750 -14 46 -14 48 8 57 31 13 203 8 218 -7z"/>
<path d="M6825 5856 c-159 -32 -241 -85 -295 -190 -34 -67 -35 -72 -35 -185 0
-111 1 -119 33 -183 50 -102 126 -156 326 -232 130 -49 171 -79 186 -137 13
-48 -5 -105 -43 -133 -22 -16 -46 -21 -125 -24 -83 -4 -116 0 -211 24 -136 33
-130 37 -156 -96 -15 -76 -15 -92 -4 -106 38 -46 200 -84 353 -84 173 0 277
33 366 116 143 134 158 401 30 546 -47 54 -115 90 -283 153 -152 57 -187 87
-187 160 0 91 79 133 229 122 42 -3 108 -14 148 -25 68 -18 73 -18 87 -3 18
20 49 158 44 198 -2 23 -11 31 -51 45 -117 43 -292 58 -412 34z m359 -34 c98
-29 99 -30 78 -135 -10 -48 -22 -91 -28 -97 -5 -5 -37 -2 -83 10 -105 28 -259
28 -317 0 -52 -26 -79 -75 -71 -132 10 -77 46 -104 222 -168 183 -66 260 -123
307 -225 20 -42 23 -66 22 -155 0 -133 -24 -201 -94 -271 -90 -90 -181 -119
-371 -119 -129 0 -241 20 -308 55 -37 18 -39 42 -12 150 19 79 11 77 126 44
104 -28 284 -33 330 -7 51 27 68 54 73 112 8 98 -23 130 -183 191 -212 80
-291 138 -341 248 -24 52 -28 75 -29 147 -1 200 96 320 296 365 89 20 291 14
383 -13z"/>
<path d="M4415 5843 c-33 -2 -63 -7 -67 -11 -4 -4 -10 -293 -13 -644 -7 -634
-7 -636 13 -647 31 -16 247 -14 261 2 7 9 12 98 13 258 l3 244 208 0 c174 0
209 2 217 15 5 8 10 61 10 116 0 81 -3 104 -16 115 -16 13 -112 18 -336 19
l-88 0 0 141 0 142 231 -5 c192 -5 233 -3 245 9 21 22 20 216 -2 237 -13 14
-55 16 -317 14 -166 -1 -329 -3 -362 -5z m670 -128 l0 -110 -238 0 -237 0 0
-157 0 -158 210 0 c247 0 227 12 222 -137 l-3 -93 -213 0 -213 0 -5 -251 c-4
-203 -7 -252 -19 -260 -16 -10 -198 -12 -223 -3 -14 6 -16 71 -16 639 0 497 3
634 13 638 6 3 172 5 367 4 l355 -2 0 -110z"/>
<path d="M5574 5496 c-18 -14 -17 -21 54 -233 41 -120 112 -326 159 -458 47
-132 85 -253 84 -268 0 -15 -13 -51 -28 -78 -36 -67 -90 -99 -165 -99 -67 0
-68 -2 -75 -115 -5 -71 -3 -82 15 -98 30 -27 141 -34 222 -13 144 37 228 134
307 354 35 99 180 566 261 841 55 188 59 181 -99 181 -84 0 -111 -3 -123 -15
-17 -18 -14 -6 -95 -330 -33 -133 -64 -252 -69 -265 l-10 -25 -7 30 c-4 17
-43 154 -86 305 -51 181 -84 279 -95 287 -26 19 -224 18 -250 -1z m238 -8 c14
-12 61 -165 165 -536 l37 -133 13 43 c8 24 45 169 84 323 39 154 76 286 84
294 16 16 145 27 199 17 43 -8 44 -13 11 -120 -135 -449 -239 -787 -265 -861
-96 -274 -206 -375 -403 -375 -114 0 -123 7 -119 100 3 101 10 110 80 110 91
0 152 52 182 157 12 39 10 48 -23 140 -35 94 -260 749 -277 805 -7 22 -5 30 8
38 25 14 205 13 224 -2z"/>
<path d="M1420 4846 c0 -27 87 -180 149 -261 322 -423 879 -695 1616 -790 495
-64 997 -27 1373 101 163 55 377 158 490 236 43 29 56 53 25 44 -93 -27 -386
-92 -498 -111 -393 -66 -874 -73 -1300 -19 -433 55 -831 162 -1110 299 -206
101 -532 319 -675 452 -52 48 -70 60 -70 49z m195 -172 c225 -171 479 -323
668 -398 395 -158 833 -246 1375 -277 422 -24 902 26 1305 136 84 22 90 23 67
5 -47 -37 -210 -122 -327 -172 -219 -93 -482 -155 -758 -179 -166 -14 -543 -6
-715 15 -276 34 -564 101 -778 180 -142 52 -357 161 -478 241 -172 115 -349
294 -451 457 -71 113 -77 132 -27 88 21 -20 75 -63 119 -96z"/>
<path d="M1770 4224 c0 -15 88 -123 170 -208 351 -364 902 -567 1545 -567 167
-1 366 20 501 51 121 28 262 72 247 77 -6 2 -47 -7 -90 -20 -207 -65 -493
-102 -728 -94 -645 23 -1158 229 -1500 600 -84 91 -97 117 -32 65 66 -54 214
-151 323 -212 266 -148 585 -247 990 -305 249 -36 399 -44 689 -36 149 4 297
8 329 9 41 1 61 5 64 15 4 11 -6 13 -54 8 -634 -69 -1316 17 -1820 228 -171
72 -378 197 -544 329 -74 60 -90 70 -90 60z"/>
</g>
</svg>
