<?xml version="1.0" standalone="no"?>
<!DOCTYPE svg PUBLIC "-//W3C//DTD SVG 20010904//EN"
 "http://www.w3.org/TR/2001/REC-SVG-20010904/DTD/svg10.dtd">
<svg version="1.0" xmlns="http://www.w3.org/2000/svg"
viewBox="0 0 1536.000000 1024.000000"
 preserveAspectRatio="xMidYMid meet">

<g transform="translate(0.000000,1024.000000) scale(0.100000,-0.100000)"
fill="#000000" stroke="none">
<path d="M6404 7029 c-172 -29 -441 -147 -902 -396 l-194 -104 -946 210 c-521
116 -965 211 -987 210 -53 -1 -76 -10 -238 -99 -130 -70 -158 -94 -141 -121 4
-6 48 -31 98 -54 50 -24 163 -77 251 -120 88 -42 248 -119 355 -170 477 -228
635 -306 635 -314 0 -11 -702 -362 -770 -385 -73 -25 -171 -22 -242 7 -32 13
-177 92 -323 175 -205 118 -273 152 -300 152 -49 -1 -254 -108 -258 -135 -2
-14 70 -98 243 -285 135 -146 245 -272 245 -280 -1 -9 -45 -37 -110 -70 -140
-70 -158 -84 -145 -107 15 -25 169 -100 235 -114 137 -29 571 49 963 172 218
68 669 240 956 363 46 20 86 35 88 32 2 -2 -32 -161 -76 -352 -44 -192 -103
-450 -131 -574 -28 -124 -59 -261 -69 -305 -20 -85 -15 -115 18 -115 30 0 402
129 446 155 22 13 50 34 62 47 13 13 166 352 342 753 175 402 324 741 330 755
9 19 41 37 124 74 222 96 554 266 673 344 375 246 459 488 209 606 -105 50
-297 69 -441 45z"/>
<path d="M9865 6004 c-180 -38 -291 -115 -353 -245 -40 -85 -56 -171 -50 -272
13 -204 119 -302 474 -436 193 -72 229 -94 260 -153 20 -38 17 -107 -4 -148
-65 -122 -356 -125 -592 -5 -27 14 -51 25 -54 25 -9 0 -106 -262 -100 -271 10
-16 101 -58 192 -88 265 -89 612 -50 760 83 111 101 166 271 143 441 -28 196
-134 290 -464 409 -159 57 -217 87 -251 126 -62 74 -42 174 45 225 30 17 52
20 169 20 133 0 137 -1 230 -38 52 -21 102 -39 110 -40 9 -1 29 37 62 118 26
66 47 127 48 137 0 23 -123 72 -247 97 -95 20 -314 28 -378 15z"/>
<path d="M6690 5190 l0 -800 165 0 165 0 2 303 3 302 283 3 282 2 0 145 0 145
-282 2 -283 3 0 200 0 200 323 3 322 2 0 145 0 145 -490 0 -490 0 0 -800z"/>
<path d="M7820 5190 l0 -800 155 0 155 0 0 800 0 800 -155 0 -155 0 0 -800z"/>
<path d="M10700 5190 l0 -800 155 0 155 0 2 93 c1 50 0 169 -1 263 -2 104 1
174 7 178 5 3 90 -116 188 -264 l178 -270 173 0 c137 0 173 3 173 13 0 8 -88
144 -195 303 -107 159 -195 294 -195 300 0 6 79 120 175 254 96 134 175 249
175 257 0 10 -35 13 -169 13 l-168 0 -162 -237 c-89 -131 -165 -237 -169 -235
-4 1 -8 206 -8 455 -1 248 -2 458 -3 465 -1 9 -39 12 -156 12 l-155 0 0 -800z"/>
<path d="M8240 5516 c0 -8 96 -261 214 -564 210 -540 214 -550 204 -595 -11
-53 -41 -101 -81 -131 -24 -18 -43 -21 -125 -21 l-97 -1 -3 -122 -3 -122 27
-10 c82 -32 237 -19 331 26 60 29 146 117 184 190 29 53 509 1333 509 1355 0
5 -70 9 -160 9 l-159 0 -11 -37 c-57 -206 -229 -728 -239 -728 -8 0 -34 68
-66 170 -30 94 -85 265 -122 380 l-69 210 -167 3 c-139 2 -167 0 -167 -12z"/>
<path d="M11760 5516 c0 -8 21 -67 46 -133 383 -986 376 -966 370 -1012 -8
-58 -49 -127 -89 -148 -23 -13 -56 -18 -122 -18 l-90 -1 -3 -121 -3 -121 33
-10 c62 -19 104 -22 181 -12 91 11 153 36 213 85 86 71 117 139 373 828 133
356 241 655 241 663 0 12 -24 14 -157 12 l-157 -3 -35 -110 c-20 -61 -74 -233
-121 -383 -47 -149 -90 -272 -95 -272 -6 0 -39 89 -73 198 -35 108 -91 281
-124 385 l-62 187 -163 0 c-133 0 -163 -3 -163 -14z"/>
<path d="M3005 4644 c69 -157 235 -351 444 -517 311 -247 777 -460 1269 -578
597 -143 1305 -165 1937 -58 435 73 871 237 1172 440 69 47 97 72 53 49 -39
-21 -245 -80 -400 -114 -741 -165 -1666 -184 -2475 -50 -834 138 -1551 435
-1935 801 l-91 87 26 -60z"/>
<path d="M3310 4045 c0 -18 100 -147 169 -219 310 -321 872 -580 1471 -675
255 -41 330 -46 660 -46 291 0 340 3 469 23 173 28 294 59 421 107 l95 35 -60
-5 c-33 -3 -193 -8 -355 -12 -969 -20 -1761 141 -2420 492 -148 78 -325 194
-398 260 -29 26 -52 44 -52 40z"/>
</g>
</svg>
